<!DOCTYPE svg PUBLIC "-//W3C//DTD SVG 1.1//EN" "http://www.w3.org/Graphics/SVG/1.1/DTD/svg11.dtd">
<!-- Uploaded to: SVG Repo, www.svgrepo.com, Transformed by: SVG Repo Mixer Tools -->
<svg fill="#05002e" version="1.1" id="Capa_1" xmlns="http://www.w3.org/2000/svg" xmlns:xlink="http://www.w3.org/1999/xlink" width="241px" height="241px" viewBox="-351.92 -351.92 1583.64 1583.64" xml:space="preserve" stroke="#05002e" stroke-width="0.00879799">
<g id="SVGRepo_bgCarrier" stroke-width="0">
<path transform="translate(-351.92, -351.92), scale(49.48875)" d="M16,31.860748572895925C18.49004072469937,32.154777408084556,19.94317439700637,28.90842161411543,22.160920683399972,27.738653613283162C24.373011153136773,26.57186881814232,27.988648753551175,27.26664429857348,29.02508202301943,24.990564976051616C30.1401536068199,22.54179046274206,26.69873122280709,20.006818412699964,26.903368826085735,17.3239086666671C27.09405685072711,14.823885447251826,30.86139481645741,13.040205895780634,30.1192622342282,10.645270144919882C29.39757092585805,8.316300420521893,25.716910324778922,8.698065994015039,23.773964225097696,7.2250083659933235C22.0204648911309,5.895581075110384,21.31632990301337,3.4265879267513473,19.335054778462666,2.4691508704374847C17.240733684515856,1.4570851566365404,14.746625313930426,1.1957535593908972,12.493565562704578,1.773836261958703C10.246395848757324,2.350407718024332,8.161248735518292,3.758169296679957,6.850534404833901,5.672388278554809C5.611253953742745,7.482282401026517,6.049355842914422,9.892339181401148,5.483497431283297,12.011616659458383C4.980264878585948,13.896345053055143,3.726698754607059,15.543732176450883,3.6940438709303045,17.494213598637767C3.659452432027621,19.560365774044993,4.028705481610547,21.755961812106374,5.292992381399564,23.39051374294468C6.544815888355746,25.00895219287679,8.953490120879659,25.099140380036857,10.558151449283802,26.368576132610016C12.609158733537331,27.991112881849652,13.402846623930056,31.55407166821829,16,31.860748572895925" fill="#7acbe6" strokewidth="0"/>
</g>
<g id="SVGRepo_tracerCarrier" stroke-linecap="round" stroke-linejoin="round" stroke="#fafafa" stroke-width="19.355578"/>
<g id="SVGRepo_iconCarrier"> <g> <path d="M869.2,526.101V411.8c0-48.199-39.299-87.5-87.5-87.5h-86v75h86c6.9,0,12.5,5.601,12.5,12.5v114.301 c0,64-41.299,118.6-98.6,138.5c-1,27.8-6.4,54.899-16.199,80.8c47.1-6.7,90.699-28.4,124.898-62.7 C846.1,640.9,869.2,585.3,869.2,526.101z"/> <path d="M235,879.8h206.4c91,0,169.399-54.199,204.6-132.1c12.699-28.1,19.799-59.4,19.799-92.3V324.3v-54.8 c0-24.8-20.1-44.9-44.898-44.9H55.5c-24.8,0-44.9,20.1-44.9,44.9v385.9C10.6,779.3,111,879.8,235,879.8z"/> <path d="M40,81.5c10.7,13.6,24.9,24.3,40.3,32.3c19.3,10,40.5,16.1,61.7,21.3c16.6,4.1,33.4,7.2,49.6,12.5 c19.3,6.2,36.2,17.3,53.5,27.5c6.699-33.7-15.5-69.6-42-88.2c-25.6-18-56.6-26.2-86.5-35.4c-17.4-5.4-34.9-11.2-51.1-19.8 C49.1,23.1,40.8,14.3,30.6,0c-13.3,21.4-10.3,49.2,1.9,70.5C34.8,74.3,37.3,78,40,81.5z"/> <path d="M264.4,81.5c10.7,13.6,24.899,24.3,40.3,32.3c19.3,10,40.5,16.1,61.7,21.3c16.6,4.1,33.399,7.2,49.6,12.5 c19.3,6.2,36.2,17.3,53.5,27.5c6.699-33.7-15.5-69.6-42-88.2c-25.6-18-56.6-26.2-86.5-35.4c-17.399-5.4-34.899-11.2-51.1-19.8 C273.5,23.1,265.2,14.3,255,0c-13.3,21.4-10.3,49.2,1.9,70.5C259.2,74.3,261.7,78,264.4,81.5z"/> </g> </g>
</svg>